<svg width="634" height="233" viewBox="0 0 634 233" fill="none" xmlns="http://www.w3.org/2000/svg">
<path d="M92.8438 130.479V141.448H58.4844V130.479H92.8438ZM63.0312 73.1977V141.448H48.9688V73.1977H63.0312ZM175.4 73.1977H189.416V118.291C189.416 123.541 188.291 127.963 186.041 131.557C183.822 135.151 180.744 137.854 176.806 139.666C172.9 141.479 168.4 142.385 163.306 142.385C158.212 142.385 153.681 141.479 149.712 139.666C145.775 137.854 142.681 135.151 140.431 131.557C138.212 127.963 137.103 123.541 137.103 118.291V73.1977H151.166V118.291C151.166 121.354 151.65 123.854 152.619 125.791C153.587 127.729 154.978 129.151 156.791 130.057C158.634 130.963 160.806 131.416 163.306 131.416C165.869 131.416 168.041 130.963 169.822 130.057C171.634 129.151 173.009 127.729 173.947 125.791C174.916 123.854 175.4 121.354 175.4 118.291V73.1977ZM245.816 73.1977H257.722L275.253 123.307L292.784 73.1977H304.691L280.034 141.448H270.472L245.816 73.1977ZM239.394 73.1977H251.253L253.409 122.041V141.448H239.394V73.1977ZM299.253 73.1977H311.159V141.448H297.097V122.041L299.253 73.1977ZM375.294 90.7289V141.448H361.747V90.7289H375.294ZM360.903 77.5102C360.903 75.5414 361.591 73.9164 362.966 72.6352C364.341 71.3539 366.184 70.7133 368.497 70.7133C370.778 70.7133 372.606 71.3539 373.981 72.6352C375.388 73.9164 376.091 75.5414 376.091 77.5102C376.091 79.4789 375.388 81.1039 373.981 82.3852C372.606 83.6664 370.778 84.3071 368.497 84.3071C366.184 84.3071 364.341 83.6664 362.966 82.3852C361.591 81.1039 360.903 79.4789 360.903 77.5102ZM481.241 73.1977V141.448H467.178L439.756 95.6977V141.448H425.694V73.1977H439.756L467.225 118.995V73.1977H481.241ZM560.469 84.8696L541.906 141.448H526.953L552.312 73.1977H561.828L560.469 84.8696ZM575.891 141.448L557.281 84.8696L555.781 73.1977H565.391L590.891 141.448H575.891ZM575.047 116.041V127.057H539V116.041H575.047Z" fill="white"/>
<path d="M154.45 178.998C155.704 178.998 156.97 179.105 158.25 179.318C159.557 179.505 160.597 179.758 161.37 180.078C161.61 180.158 161.757 180.265 161.81 180.398C161.89 180.505 161.944 180.705 161.97 180.998L162.49 186.558C162.49 186.638 162.424 186.691 162.29 186.718C162.157 186.745 162.064 186.705 162.01 186.598C161.264 184.411 160.197 182.745 158.81 181.598C157.424 180.425 155.757 179.838 153.81 179.838C151.997 179.838 150.37 180.331 148.93 181.318C147.517 182.278 146.397 183.665 145.57 185.478C144.77 187.291 144.37 189.411 144.37 191.838C144.37 194.291 144.784 196.451 145.61 198.318C146.464 200.158 147.624 201.585 149.09 202.598C150.584 203.585 152.29 204.078 154.21 204.078C156.05 204.078 157.597 203.585 158.85 202.598C160.104 201.585 161.29 199.931 162.41 197.638C162.437 197.558 162.517 197.531 162.65 197.558C162.784 197.585 162.85 197.638 162.85 197.718L162.25 202.678C162.197 202.998 162.144 203.211 162.09 203.318C162.037 203.398 161.89 203.491 161.65 203.598C159.197 204.478 156.717 204.918 154.21 204.918C151.357 204.918 148.797 204.385 146.53 203.318C144.29 202.225 142.53 200.705 141.25 198.758C139.97 196.811 139.33 194.598 139.33 192.118C139.33 189.585 139.984 187.331 141.29 185.358C142.624 183.358 144.437 181.798 146.73 180.678C149.05 179.558 151.624 178.998 154.45 178.998ZM183.637 204.918C181.157 204.918 178.944 204.345 176.997 203.198C175.077 202.025 173.584 200.451 172.517 198.478C171.477 196.478 170.957 194.305 170.957 191.958C170.957 189.211 171.65 186.865 173.037 184.918C174.424 182.945 176.197 181.465 178.357 180.478C180.544 179.491 182.77 178.998 185.037 178.998C187.57 178.998 189.797 179.598 191.717 180.798C193.637 181.971 195.104 183.531 196.117 185.478C197.157 187.425 197.677 189.491 197.677 191.678C197.677 194.105 197.037 196.331 195.757 198.358C194.477 200.385 192.757 201.985 190.597 203.158C188.464 204.331 186.144 204.918 183.637 204.918ZM184.957 203.918C186.45 203.918 187.784 203.491 188.957 202.638C190.157 201.758 191.09 200.491 191.757 198.838C192.424 197.158 192.757 195.158 192.757 192.838C192.757 190.385 192.384 188.198 191.637 186.278C190.89 184.331 189.81 182.811 188.397 181.718C186.984 180.625 185.33 180.078 183.437 180.078C181.01 180.078 179.144 180.998 177.837 182.838C176.53 184.651 175.877 187.198 175.877 190.478C175.877 193.065 176.264 195.385 177.037 197.438C177.837 199.465 178.917 201.051 180.277 202.198C181.664 203.345 183.224 203.918 184.957 203.918ZM217.062 204.598C216.209 204.598 215.195 204.558 214.022 204.478C213.595 204.451 213.062 204.425 212.422 204.398C211.809 204.371 211.115 204.358 210.342 204.358L207.382 204.398C206.849 204.425 206.129 204.438 205.222 204.438C205.169 204.438 205.142 204.358 205.142 204.198C205.142 204.038 205.169 203.958 205.222 203.958C206.075 203.958 206.702 203.891 207.102 203.758C207.502 203.625 207.769 203.371 207.902 202.998C208.062 202.598 208.142 201.998 208.142 201.198V182.678C208.142 181.878 208.062 181.291 207.902 180.918C207.769 180.545 207.502 180.291 207.102 180.158C206.729 179.998 206.129 179.918 205.302 179.918C205.222 179.918 205.182 179.838 205.182 179.678C205.182 179.518 205.222 179.438 205.302 179.438L207.422 179.478C208.649 179.531 209.622 179.558 210.342 179.558C211.435 179.558 212.555 179.518 213.702 179.438C215.089 179.385 216.022 179.358 216.502 179.358C219.195 179.358 221.582 179.891 223.662 180.958C225.769 182.025 227.395 183.478 228.542 185.318C229.689 187.158 230.262 189.225 230.262 191.518C230.262 194.105 229.662 196.398 228.462 198.398C227.289 200.371 225.689 201.905 223.662 202.998C221.662 204.065 219.462 204.598 217.062 204.598ZM216.662 203.678C218.369 203.678 219.875 203.251 221.182 202.398C222.489 201.518 223.502 200.225 224.222 198.518C224.969 196.811 225.342 194.771 225.342 192.398C225.342 190.131 224.995 188.078 224.302 186.238C223.609 184.371 222.622 182.905 221.342 181.838C220.062 180.771 218.582 180.238 216.902 180.238C215.249 180.238 214.115 180.398 213.502 180.718C212.889 181.038 212.582 181.718 212.582 182.758V200.758C212.582 201.825 212.862 202.585 213.422 203.038C213.982 203.465 215.062 203.678 216.662 203.678ZM238.265 204.438C238.185 204.438 238.145 204.358 238.145 204.198C238.145 204.038 238.185 203.958 238.265 203.958C239.118 203.958 239.732 203.891 240.105 203.758C240.505 203.625 240.772 203.371 240.905 202.998C241.038 202.598 241.105 201.998 241.105 201.198V182.678C241.105 181.878 241.038 181.291 240.905 180.918C240.772 180.545 240.505 180.291 240.105 180.158C239.705 179.998 239.092 179.918 238.265 179.918C238.185 179.918 238.145 179.838 238.145 179.678C238.145 179.518 238.185 179.438 238.265 179.438H255.225C255.492 179.438 255.625 179.558 255.625 179.798L255.705 185.118C255.705 185.171 255.625 185.211 255.465 185.238C255.332 185.265 255.252 185.238 255.225 185.158C254.798 183.611 254.078 182.465 253.065 181.718C252.052 180.971 250.718 180.598 249.065 180.598H247.865C247.065 180.598 246.478 180.771 246.105 181.118C245.732 181.465 245.545 181.998 245.545 182.718V201.038C245.545 201.811 245.692 202.385 245.985 202.758C246.278 203.131 246.745 203.318 247.385 203.318H248.705C250.785 203.318 252.452 202.891 253.705 202.038C254.958 201.185 255.878 199.865 256.465 198.078C256.465 198.025 256.518 197.998 256.625 197.998C256.705 197.998 256.772 198.025 256.825 198.078C256.905 198.105 256.945 198.131 256.945 198.158C256.678 200.238 256.545 202.131 256.545 203.838C256.545 204.051 256.505 204.211 256.425 204.318C256.345 204.398 256.185 204.438 255.945 204.438H238.265ZM253.705 195.518C253.705 194.425 253.278 193.571 252.425 192.958C251.598 192.318 250.398 191.998 248.825 191.998H243.425V190.878H248.865C250.412 190.878 251.598 190.611 252.425 190.078C253.252 189.545 253.665 188.798 253.665 187.838C253.665 187.758 253.732 187.718 253.865 187.718C254.025 187.718 254.105 187.758 254.105 187.838L254.065 191.438L254.105 193.358C254.158 194.265 254.185 194.985 254.185 195.518C254.185 195.571 254.105 195.598 253.945 195.598C253.785 195.598 253.705 195.571 253.705 195.518ZM284.31 194.158H295.83L296.11 195.278H283.71L284.31 194.158ZM305.55 203.958C305.684 203.958 305.75 204.038 305.75 204.198C305.75 204.358 305.684 204.438 305.55 204.438C305.017 204.438 304.19 204.411 303.07 204.358C301.897 204.305 301.057 204.278 300.55 204.278C299.884 204.278 299.07 204.305 298.11 204.358C297.204 204.411 296.484 204.438 295.95 204.438C295.844 204.438 295.79 204.358 295.79 204.198C295.79 204.038 295.844 203.958 295.95 203.958C296.644 203.958 297.137 203.891 297.43 203.758C297.75 203.598 297.91 203.331 297.91 202.958C297.91 202.505 297.644 201.745 297.11 200.678L288.99 184.638L290.95 181.198L282.99 198.758C282.644 199.531 282.47 200.251 282.47 200.918C282.47 201.878 282.804 202.625 283.47 203.158C284.164 203.691 285.084 203.958 286.23 203.958C286.364 203.958 286.43 204.038 286.43 204.198C286.43 204.358 286.364 204.438 286.23 204.438C285.75 204.438 285.057 204.411 284.15 204.358C283.137 204.305 282.257 204.278 281.51 204.278C280.79 204.278 279.924 204.305 278.91 204.358C278.004 204.411 277.27 204.438 276.71 204.438C276.604 204.438 276.55 204.358 276.55 204.198C276.55 204.038 276.604 203.958 276.71 203.958C277.457 203.958 278.084 203.811 278.59 203.518C279.097 203.198 279.604 202.651 280.11 201.878C280.617 201.078 281.217 199.905 281.91 198.358L290.59 179.278C290.644 179.198 290.764 179.158 290.95 179.158C291.164 179.158 291.284 179.198 291.31 179.278L301.31 198.958C302.244 200.851 303.017 202.158 303.63 202.878C304.244 203.598 304.884 203.958 305.55 203.958ZM326.514 178.998C327.768 178.998 329.034 179.105 330.314 179.318C331.621 179.505 332.661 179.758 333.434 180.078C333.674 180.158 333.821 180.265 333.874 180.398C333.954 180.505 334.008 180.705 334.034 180.998L334.554 186.558C334.554 186.638 334.488 186.691 334.354 186.718C334.221 186.745 334.128 186.705 334.074 186.598C333.328 184.411 332.261 182.745 330.874 181.598C329.488 180.425 327.821 179.838 325.874 179.838C324.061 179.838 322.434 180.331 320.994 181.318C319.581 182.278 318.461 183.665 317.634 185.478C316.834 187.291 316.434 189.411 316.434 191.838C316.434 194.291 316.848 196.451 317.674 198.318C318.528 200.158 319.688 201.585 321.154 202.598C322.648 203.585 324.354 204.078 326.274 204.078C328.114 204.078 329.661 203.585 330.914 202.598C332.168 201.585 333.354 199.931 334.474 197.638C334.501 197.558 334.581 197.531 334.714 197.558C334.848 197.585 334.914 197.638 334.914 197.718L334.314 202.678C334.261 202.998 334.208 203.211 334.154 203.318C334.101 203.398 333.954 203.491 333.714 203.598C331.261 204.478 328.781 204.918 326.274 204.918C323.421 204.918 320.861 204.385 318.594 203.318C316.354 202.225 314.594 200.705 313.314 198.758C312.034 196.811 311.394 194.598 311.394 192.118C311.394 189.585 312.048 187.331 313.354 185.358C314.688 183.358 316.501 181.798 318.794 180.678C321.114 179.558 323.688 178.998 326.514 178.998ZM348.501 194.158H360.021L360.301 195.278H347.901L348.501 194.158ZM369.741 203.958C369.874 203.958 369.941 204.038 369.941 204.198C369.941 204.358 369.874 204.438 369.741 204.438C369.208 204.438 368.381 204.411 367.261 204.358C366.088 204.305 365.248 204.278 364.741 204.278C364.074 204.278 363.261 204.305 362.301 204.358C361.394 204.411 360.674 204.438 360.141 204.438C360.034 204.438 359.981 204.358 359.981 204.198C359.981 204.038 360.034 203.958 360.141 203.958C360.834 203.958 361.328 203.891 361.621 203.758C361.941 203.598 362.101 203.331 362.101 202.958C362.101 202.505 361.834 201.745 361.301 200.678L353.181 184.638L355.141 181.198L347.181 198.758C346.834 199.531 346.661 200.251 346.661 200.918C346.661 201.878 346.994 202.625 347.661 203.158C348.354 203.691 349.274 203.958 350.421 203.958C350.554 203.958 350.621 204.038 350.621 204.198C350.621 204.358 350.554 204.438 350.421 204.438C349.941 204.438 349.248 204.411 348.341 204.358C347.328 204.305 346.448 204.278 345.701 204.278C344.981 204.278 344.114 204.305 343.101 204.358C342.194 204.411 341.461 204.438 340.901 204.438C340.794 204.438 340.741 204.358 340.741 204.198C340.741 204.038 340.794 203.958 340.901 203.958C341.648 203.958 342.274 203.811 342.781 203.518C343.288 203.198 343.794 202.651 344.301 201.878C344.808 201.078 345.408 199.905 346.101 198.358L354.781 179.278C354.834 179.198 354.954 179.158 355.141 179.158C355.354 179.158 355.474 179.198 355.501 179.278L365.501 198.958C366.434 200.851 367.208 202.158 367.821 202.878C368.434 203.598 369.074 203.958 369.741 203.958ZM387.134 204.598C386.28 204.598 385.267 204.558 384.094 204.478C383.667 204.451 383.134 204.425 382.494 204.398C381.88 204.371 381.187 204.358 380.414 204.358L377.454 204.398C376.92 204.425 376.2 204.438 375.294 204.438C375.24 204.438 375.214 204.358 375.214 204.198C375.214 204.038 375.24 203.958 375.294 203.958C376.147 203.958 376.774 203.891 377.174 203.758C377.574 203.625 377.84 203.371 377.974 202.998C378.134 202.598 378.214 201.998 378.214 201.198V182.678C378.214 181.878 378.134 181.291 377.974 180.918C377.84 180.545 377.574 180.291 377.174 180.158C376.8 179.998 376.2 179.918 375.374 179.918C375.294 179.918 375.254 179.838 375.254 179.678C375.254 179.518 375.294 179.438 375.374 179.438L377.494 179.478C378.72 179.531 379.694 179.558 380.414 179.558C381.507 179.558 382.627 179.518 383.774 179.438C385.16 179.385 386.094 179.358 386.574 179.358C389.267 179.358 391.654 179.891 393.734 180.958C395.84 182.025 397.467 183.478 398.614 185.318C399.76 187.158 400.334 189.225 400.334 191.518C400.334 194.105 399.734 196.398 398.534 198.398C397.36 200.371 395.76 201.905 393.734 202.998C391.734 204.065 389.534 204.598 387.134 204.598ZM386.734 203.678C388.44 203.678 389.947 203.251 391.254 202.398C392.56 201.518 393.574 200.225 394.294 198.518C395.04 196.811 395.414 194.771 395.414 192.398C395.414 190.131 395.067 188.078 394.374 186.238C393.68 184.371 392.694 182.905 391.414 181.838C390.134 180.771 388.654 180.238 386.974 180.238C385.32 180.238 384.187 180.398 383.574 180.718C382.96 181.038 382.654 181.718 382.654 182.758V200.758C382.654 201.825 382.934 202.585 383.494 203.038C384.054 203.465 385.134 203.678 386.734 203.678ZM408.337 204.438C408.257 204.438 408.217 204.358 408.217 204.198C408.217 204.038 408.257 203.958 408.337 203.958C409.19 203.958 409.804 203.891 410.177 203.758C410.577 203.625 410.844 203.371 410.977 202.998C411.11 202.598 411.177 201.998 411.177 201.198V182.678C411.177 181.878 411.11 181.291 410.977 180.918C410.844 180.545 410.577 180.291 410.177 180.158C409.777 179.998 409.164 179.918 408.337 179.918C408.257 179.918 408.217 179.838 408.217 179.678C408.217 179.518 408.257 179.438 408.337 179.438H425.297C425.564 179.438 425.697 179.558 425.697 179.798L425.777 185.118C425.777 185.171 425.697 185.211 425.537 185.238C425.404 185.265 425.324 185.238 425.297 185.158C424.87 183.611 424.15 182.465 423.137 181.718C422.124 180.971 420.79 180.598 419.137 180.598H417.937C417.137 180.598 416.55 180.771 416.177 181.118C415.804 181.465 415.617 181.998 415.617 182.718V201.038C415.617 201.811 415.764 202.385 416.057 202.758C416.35 203.131 416.817 203.318 417.457 203.318H418.777C420.857 203.318 422.524 202.891 423.777 202.038C425.03 201.185 425.95 199.865 426.537 198.078C426.537 198.025 426.59 197.998 426.697 197.998C426.777 197.998 426.844 198.025 426.897 198.078C426.977 198.105 427.017 198.131 427.017 198.158C426.75 200.238 426.617 202.131 426.617 203.838C426.617 204.051 426.577 204.211 426.497 204.318C426.417 204.398 426.257 204.438 426.017 204.438H408.337ZM423.777 195.518C423.777 194.425 423.35 193.571 422.497 192.958C421.67 192.318 420.47 191.998 418.897 191.998H413.497V190.878H418.937C420.484 190.878 421.67 190.611 422.497 190.078C423.324 189.545 423.737 188.798 423.737 187.838C423.737 187.758 423.804 187.718 423.937 187.718C424.097 187.718 424.177 187.758 424.177 187.838L424.137 191.438L424.177 193.358C424.23 194.265 424.257 194.985 424.257 195.518C424.257 195.571 424.177 195.598 424.017 195.598C423.857 195.598 423.777 195.571 423.777 195.518ZM438.247 180.358L439.407 180.438L438.967 199.358C438.941 200.798 439.221 201.931 439.807 202.758C440.421 203.558 441.274 203.958 442.367 203.958C442.447 203.958 442.487 204.038 442.487 204.198C442.487 204.358 442.447 204.438 442.367 204.438C441.647 204.438 441.087 204.425 440.687 204.398L438.487 204.358L435.967 204.398C435.541 204.425 434.967 204.438 434.247 204.438C434.167 204.438 434.127 204.358 434.127 204.198C434.127 204.038 434.167 203.958 434.247 203.958C435.341 203.958 436.207 203.545 436.847 202.718C437.487 201.891 437.821 200.771 437.847 199.358L438.247 180.358ZM466.487 203.958C466.541 203.958 466.567 204.038 466.567 204.198C466.567 204.358 466.541 204.438 466.487 204.438C465.581 204.438 464.861 204.425 464.327 204.398L461.367 204.358L458.367 204.398C457.861 204.425 457.167 204.438 456.287 204.438C456.207 204.438 456.167 204.358 456.167 204.198C456.167 204.038 456.207 203.958 456.287 203.958C457.141 203.958 457.767 203.891 458.167 203.758C458.594 203.598 458.874 203.331 459.007 202.958C459.141 202.585 459.181 201.998 459.127 201.198L458.207 183.438L460.247 180.238L450.047 204.158C449.994 204.265 449.887 204.318 449.727 204.318C449.567 204.318 449.461 204.265 449.407 204.158L438.167 182.758C437.634 181.771 437.074 181.051 436.487 180.598C435.927 180.145 435.274 179.918 434.527 179.918C434.447 179.918 434.407 179.838 434.407 179.678C434.407 179.518 434.447 179.438 434.527 179.438L436.407 179.478C436.781 179.505 437.261 179.518 437.847 179.518L439.967 179.478C440.207 179.451 440.514 179.438 440.887 179.438C441.234 179.438 441.501 179.558 441.687 179.798C441.874 180.038 442.221 180.611 442.727 181.518L451.687 198.318L449.687 201.918L459.047 180.438C459.207 180.065 459.367 179.811 459.527 179.678C459.714 179.518 459.954 179.438 460.247 179.438C460.487 179.438 460.754 179.451 461.047 179.478C461.367 179.505 461.727 179.518 462.127 179.518L464.487 179.478C464.861 179.451 465.394 179.438 466.087 179.438C466.167 179.438 466.207 179.518 466.207 179.678C466.207 179.838 466.167 179.918 466.087 179.918C464.834 179.918 463.927 180.171 463.367 180.678C462.807 181.185 462.554 181.971 462.607 183.038L463.567 201.198C463.621 202.025 463.714 202.625 463.847 202.998C464.007 203.371 464.274 203.625 464.647 203.758C465.047 203.891 465.661 203.958 466.487 203.958ZM489.504 184.958C490.224 183.758 490.584 182.731 490.584 181.878C490.584 181.238 490.384 180.758 489.984 180.438C489.611 180.091 489.064 179.918 488.344 179.918C488.264 179.918 488.224 179.838 488.224 179.678C488.224 179.518 488.264 179.438 488.344 179.438L490.464 179.478C491.691 179.531 492.784 179.558 493.744 179.558C494.197 179.558 494.744 179.531 495.384 179.478L496.864 179.438C496.917 179.438 496.944 179.518 496.944 179.678C496.944 179.838 496.917 179.918 496.864 179.918C496.037 179.918 495.024 180.438 493.824 181.478C492.624 182.491 491.557 183.771 490.624 185.318L485.424 193.998L484.584 193.318L489.504 184.958ZM476.184 184.038C475.197 182.491 474.371 181.425 473.704 180.838C473.064 180.225 472.517 179.918 472.064 179.918C471.984 179.918 471.944 179.838 471.944 179.678C471.944 179.518 471.984 179.438 472.064 179.438L473.304 179.478C473.891 179.531 474.304 179.558 474.544 179.558C475.477 179.558 476.824 179.531 478.584 179.478L481.224 179.438C481.277 179.438 481.304 179.518 481.304 179.678C481.304 179.838 481.277 179.918 481.224 179.918C480.771 179.918 480.411 180.025 480.144 180.238C479.904 180.451 479.784 180.731 479.784 181.078C479.784 181.505 479.971 182.011 480.344 182.598L486.104 191.678L482.264 193.478L476.184 184.038ZM486.464 191.678V201.198C486.464 202.025 486.531 202.625 486.664 202.998C486.797 203.371 487.051 203.625 487.424 203.758C487.824 203.891 488.451 203.958 489.304 203.958C489.384 203.958 489.424 204.038 489.424 204.198C489.424 204.358 489.384 204.438 489.304 204.438C488.424 204.438 487.731 204.425 487.224 204.398L484.224 204.358L481.264 204.398C480.731 204.425 480.011 204.438 479.104 204.438C479.051 204.438 479.024 204.358 479.024 204.198C479.024 204.038 479.051 203.958 479.104 203.958C479.957 203.958 480.584 203.891 480.984 203.758C481.384 203.625 481.651 203.371 481.784 202.998C481.944 202.598 482.024 201.998 482.024 201.198V192.038L486.464 191.678Z" fill="white"/>
<circle cx="544.615" cy="190.737" r="10.7981" fill="#D7AB57"/>
<circle cx="86.3845" cy="191.737" r="10.7981" fill="#D7AB57"/>
<path d="M379.017 74.0438C379.017 80.0074 374.183 84.8418 368.219 84.8418C362.255 84.8418 357.421 80.0074 357.421 74.0438C357.421 68.0802 362.255 63.2457 368.219 63.2457C374.183 63.2457 379.017 68.0802 379.017 74.0438Z" fill="#D7AB57"/>
</svg>
