<svg width="106" height="20" viewBox="0 0 106 20" fill="none" xmlns="http://www.w3.org/2000/svg">
<path d="M0.601562 15V0.683594H2.49609V6.5625H9.9375V0.683594H11.832V15H9.9375V8.25195H2.49609V15H0.601562ZM21.5391 13.7207C20.888 14.2741 20.2598 14.6647 19.6543 14.8926C19.0553 15.1204 18.4108 15.2344 17.7207 15.2344C16.5814 15.2344 15.7057 14.9577 15.0938 14.4043C14.4818 13.8444 14.1758 13.1315 14.1758 12.2656C14.1758 11.7578 14.2897 11.2956 14.5176 10.8789C14.752 10.4557 15.0547 10.1172 15.4258 9.86328C15.8034 9.60938 16.2266 9.41732 16.6953 9.28711C17.0404 9.19596 17.5612 9.10807 18.2578 9.02344C19.6771 8.85417 20.722 8.65234 21.3926 8.41797C21.3991 8.17708 21.4023 8.02409 21.4023 7.95898C21.4023 7.24284 21.2363 6.73828 20.9043 6.44531C20.4551 6.04818 19.7878 5.84961 18.9023 5.84961C18.0755 5.84961 17.4635 5.99609 17.0664 6.28906C16.6758 6.57552 16.3861 7.08659 16.1973 7.82227L14.4785 7.58789C14.6348 6.85221 14.8919 6.25977 15.25 5.81055C15.6081 5.35482 16.1257 5.00651 16.8027 4.76562C17.4798 4.51823 18.2643 4.39453 19.1562 4.39453C20.0417 4.39453 20.7611 4.4987 21.3145 4.70703C21.8678 4.91536 22.2747 5.17904 22.5352 5.49805C22.7956 5.81055 22.9779 6.20768 23.082 6.68945C23.1406 6.98893 23.1699 7.5293 23.1699 8.31055V10.6543C23.1699 12.2884 23.2057 13.3236 23.2773 13.7598C23.3555 14.1895 23.5052 14.6029 23.7266 15H21.8906C21.7083 14.6354 21.5911 14.209 21.5391 13.7207ZM21.3926 9.79492C20.7546 10.0553 19.7975 10.2767 18.5215 10.459C17.7988 10.5632 17.2878 10.6803 16.9883 10.8105C16.6888 10.9408 16.4577 11.1328 16.2949 11.3867C16.1322 11.6341 16.0508 11.9108 16.0508 12.2168C16.0508 12.6855 16.2266 13.0762 16.5781 13.3887C16.9362 13.7012 17.457 13.8574 18.1406 13.8574C18.8177 13.8574 19.4199 13.7109 19.9473 13.418C20.4746 13.1185 20.862 12.7116 21.1094 12.1973C21.2982 11.8001 21.3926 11.2142 21.3926 10.4395V9.79492ZM31.4805 4.62891H37.4473V6.08398H33.2383V15H31.4805V4.62891ZM39.1855 4.62891H47.3496V15H45.6016V6.08398H40.9434V11.25C40.9434 12.4544 40.9043 13.2487 40.8262 13.6328C40.748 14.0169 40.5332 14.3522 40.1816 14.6387C39.8301 14.9251 39.3223 15.0684 38.6582 15.0684C38.248 15.0684 37.776 15.0423 37.2422 14.9902V13.5254H38.0137C38.3783 13.5254 38.6387 13.4896 38.7949 13.418C38.9512 13.3398 39.0553 13.2194 39.1074 13.0566C39.1595 12.8939 39.1855 12.3633 39.1855 11.4648V4.62891ZM56.7734 13.7207C56.1224 14.2741 55.4941 14.6647 54.8887 14.8926C54.2897 15.1204 53.6452 15.2344 52.9551 15.2344C51.8158 15.2344 50.9401 14.9577 50.3281 14.4043C49.7161 13.8444 49.4102 13.1315 49.4102 12.2656C49.4102 11.7578 49.5241 11.2956 49.752 10.8789C49.9863 10.4557 50.2891 10.1172 50.6602 9.86328C51.0378 9.60938 51.4609 9.41732 51.9297 9.28711C52.2747 9.19596 52.7956 9.10807 53.4922 9.02344C54.9115 8.85417 55.9564 8.65234 56.627 8.41797C56.6335 8.17708 56.6367 8.02409 56.6367 7.95898C56.6367 7.24284 56.4707 6.73828 56.1387 6.44531C55.6895 6.04818 55.0221 5.84961 54.1367 5.84961C53.3099 5.84961 52.6979 5.99609 52.3008 6.28906C51.9102 6.57552 51.6204 7.08659 51.4316 7.82227L49.7129 7.58789C49.8691 6.85221 50.1263 6.25977 50.4844 5.81055C50.8424 5.35482 51.36 5.00651 52.0371 4.76562C52.7142 4.51823 53.4987 4.39453 54.3906 4.39453C55.276 4.39453 55.9954 4.4987 56.5488 4.70703C57.1022 4.91536 57.5091 5.17904 57.7695 5.49805C58.0299 5.81055 58.2122 6.20768 58.3164 6.68945C58.375 6.98893 58.4043 7.5293 58.4043 8.31055V10.6543C58.4043 12.2884 58.4401 13.3236 58.5117 13.7598C58.5898 14.1895 58.7396 14.6029 58.9609 15H57.125C56.9427 14.6354 56.8255 14.209 56.7734 13.7207ZM56.627 9.79492C55.9889 10.0553 55.0319 10.2767 53.7559 10.459C53.0332 10.5632 52.5221 10.6803 52.2227 10.8105C51.9232 10.9408 51.6921 11.1328 51.5293 11.3867C51.3665 11.6341 51.2852 11.9108 51.2852 12.2168C51.2852 12.6855 51.4609 13.0762 51.8125 13.3887C52.1706 13.7012 52.6914 13.8574 53.375 13.8574C54.0521 13.8574 54.6543 13.7109 55.1816 13.418C55.709 13.1185 56.0964 12.7116 56.3438 12.1973C56.5326 11.8001 56.627 11.2142 56.627 10.4395V9.79492ZM61.1484 4.62891H65.2012C66.1973 4.62891 66.9362 4.71354 67.418 4.88281C67.9062 5.04557 68.3229 5.34831 68.668 5.79102C69.0195 6.23372 69.1953 6.76432 69.1953 7.38281C69.1953 7.8776 69.0911 8.31055 68.8828 8.68164C68.681 9.04622 68.375 9.35221 67.9648 9.59961C68.4531 9.76237 68.8568 10.0684 69.1758 10.5176C69.5013 10.9603 69.6641 11.4876 69.6641 12.0996C69.599 13.0827 69.2474 13.8118 68.6094 14.2871C67.9714 14.7624 67.0436 15 65.8262 15H61.1484V4.62891ZM62.9062 8.99414H64.7812C65.5299 8.99414 66.0443 8.95508 66.3242 8.87695C66.6042 8.79883 66.8548 8.64258 67.0762 8.4082C67.2975 8.16732 67.4082 7.88086 67.4082 7.54883C67.4082 7.00195 67.2129 6.62109 66.8223 6.40625C66.4382 6.19141 65.7773 6.08398 64.8398 6.08398H62.9062V8.99414ZM62.9062 13.5547H65.2207C66.2168 13.5547 66.9004 13.4408 67.2715 13.2129C67.6426 12.9785 67.8379 12.5781 67.8574 12.0117C67.8574 11.6797 67.75 11.3737 67.5352 11.0938C67.3203 10.8073 67.0404 10.6283 66.6953 10.5566C66.3503 10.4785 65.7969 10.4395 65.0352 10.4395H62.9062V13.5547ZM71.7734 4.62891H73.5312V8.94531H78.4043V4.62891H80.1621V15H78.4043V10.4004H73.5312V15H71.7734V4.62891ZM82.7402 18.9941L82.5449 17.3438C82.929 17.4479 83.2643 17.5 83.5508 17.5C83.9414 17.5 84.2539 17.4349 84.4883 17.3047C84.7227 17.1745 84.9147 16.9922 85.0645 16.7578C85.1751 16.582 85.3542 16.1458 85.6016 15.4492C85.6341 15.3516 85.6862 15.2083 85.7578 15.0195L81.8223 4.62891H83.7168L85.875 10.6348C86.1549 11.3965 86.4056 12.1973 86.627 13.0371C86.8288 12.2298 87.0697 11.4421 87.3496 10.6738L89.5664 4.62891H91.3242L87.3789 15.1758C86.9557 16.3151 86.627 17.0996 86.3926 17.5293C86.0801 18.1087 85.722 18.5319 85.3184 18.7988C84.9147 19.0723 84.4329 19.209 83.873 19.209C83.5345 19.209 83.1569 19.1374 82.7402 18.9941ZM92.8379 4.62891H94.5957V8.96484H96.7246C96.8809 7.48047 97.3431 6.34766 98.1113 5.56641C98.8861 4.78516 99.8887 4.39453 101.119 4.39453C102.167 4.39453 102.994 4.60612 103.6 5.0293C104.205 5.45247 104.703 6.03516 105.094 6.77734C105.491 7.51953 105.689 8.51888 105.689 9.77539C105.689 11.5658 105.283 12.9232 104.469 13.8477C103.655 14.7721 102.551 15.2344 101.158 15.2344C99.8626 15.2344 98.8242 14.8047 98.043 13.9453C97.2617 13.0859 96.8223 11.9076 96.7246 10.4102H94.5957V15H92.8379V4.62891ZM101.217 5.88867C100.357 5.88867 99.6868 6.2207 99.2051 6.88477C98.7298 7.54232 98.4922 8.4668 98.4922 9.6582C98.4922 11.084 98.7331 12.1289 99.2148 12.793C99.6966 13.457 100.341 13.7891 101.148 13.7891C101.949 13.7891 102.604 13.4831 103.111 12.8711C103.626 12.2526 103.883 11.2598 103.883 9.89258C103.883 8.55794 103.661 7.55859 103.219 6.89453C102.776 6.22396 102.109 5.88867 101.217 5.88867Z" fill="#3F2AFF"/>
</svg>
